
<svg width="22" height="24" viewBox="0 0 22 24" fill="none" xmlns="http://www.w3.org/2000/svg">
<path d="M21.0172 0.333313H17.3621V3.83331H15.5345V0.333313H11.8793V3.83331H10.0517V0.333313H6.39655V3.83331H4.56896V0.333313H0.913793C0.67144 0.333313 0.439013 0.456229 0.267644 0.675022C0.0962743 0.893814 0 1.19056 0 1.49998L0 22.5C0 22.8094 0.0962743 23.1061 0.267644 23.3249C0.439013 23.5437 0.67144 23.6666 0.913793 23.6666H21.0172C21.2596 23.6666 21.492 23.5437 21.6634 23.3249C21.8348 23.1061 21.931 22.8094 21.931 22.5V1.49998C21.931 1.19056 21.8348 0.893814 21.6634 0.675022C21.492 0.456229 21.2596 0.333313 21.0172 0.333313ZM16.831 15.2827L15.5345 14.1V19C15.5345 19.3094 15.4382 19.6061 15.2668 19.8249C15.0955 20.0437 14.863 20.1666 14.6207 20.1666H12.3362V15.5C12.3362 15.1906 12.2399 14.8938 12.0686 14.675C11.8972 14.4562 11.6648 14.3333 11.4224 14.3333H10.5086C10.2663 14.3333 10.0338 14.4562 9.86247 14.675C9.6911 14.8938 9.59483 15.1906 9.59483 15.5V20.1666H7.31034C7.06799 20.1666 6.83556 20.0437 6.66419 19.8249C6.49283 19.6061 6.39655 19.3094 6.39655 19V14.1L5.10011 15.2827L4.03782 13.3839L10.4344 7.5506C10.59 7.4113 10.7755 7.33657 10.9655 7.33657C11.1556 7.33657 11.341 7.4113 11.4967 7.5506L17.8932 13.3839L16.831 15.2827Z" fill="white"/>
</svg>
